UNKNOWN
version=1
nRows=116
nColumns=6
inDegrees=no
endheader
time	time	pelvis_tilt	hip_flexion_r	knee_angle_r	ankle_angle_r
      0.00000000	      4.37000000	      2.91316418	    -16.96993671	    -50.89066770	    -29.53857254
      1.00000000	      4.38000000	      2.74750784	    -15.77795861	    -52.36019710	    -27.62548360
      2.00000000	      4.39000000	      2.45548712	    -14.10171132	    -54.16432137	    -25.09366938
      3.00000000	      4.40000000	      2.08766305	    -12.09741806	    -55.99437150	    -22.27022440
      4.00000000	      4.41000000	      1.73382181	    -10.00898830	    -57.60165332	    -19.57908671
      5.00000000	      4.42000000	      1.37393623	     -7.83027058	    -58.88240028	    -17.26843098
      6.00000000	      4.43000000	      1.07188002	     -5.68359098	    -59.80959985	    -15.43189448
      7.00000000	      4.44000000	      0.82610846	     -3.61914757	    -60.37794937	    -13.98689155
      8.00000000	      4.45000000	      0.54280807	     -1.77489326	    -60.53825648	    -12.76634596
      9.00000000	      4.46000000	      0.40988868	      0.15276582	    -60.45149612	    -11.53252730
     10.00000000	      4.47000000	      0.22322295	      1.82075691	    -59.96818656	    -10.19123271
     11.00000000	      4.48000000	      0.02985785	      3.30433768	    -59.13102160	     -8.70649201
     12.00000000	      4.49000000	     -0.11588545	      4.61112088	    -57.96093165	     -7.06842676
     13.00000000	      4.50000000	     -0.23207056	      5.77912109	    -56.47082394	     -5.41022932
     14.00000000	      4.51000000	     -0.31444738	      6.79127957	    -54.65581945	     -3.92594866
     15.00000000	      4.52000000	     -0.34056200	      7.69627118	    -52.55157694	     -2.68631020
     16.00000000	      4.53000000	     -0.28150944	      8.52174548	    -50.18911901	     -1.74547542
     17.00000000	      4.54000000	     -0.16631099	      9.20652086	    -47.57130307	     -1.04065085
     18.00000000	      4.55000000	     -0.03557722	      9.70870066	    -44.68849543	     -0.57981351
     19.00000000	      4.56000000	      0.19280849	     10.15821781	    -41.61502059	     -0.16900182
     20.00000000	      4.57000000	      0.43256091	     10.48345838	    -38.30726148	      0.20078628
     21.00000000	      4.58000000	      0.73641141	     10.81781658	    -34.81992423	      0.64458863
     22.00000000	      4.59000000	      1.03158662	     10.96069458	    -31.08978635	      1.11624691
     23.00000000	      4.60000000	      1.32858050	     10.92653859	    -27.13485347	      1.53326380
     24.00000000	      4.61000000	      1.62481135	     10.88235571	    -23.03695754	      1.95884789
     25.00000000	      4.62000000	      1.89513998	     10.74968027	    -18.82583662	      2.30256491
     26.00000000	      4.63000000	      2.13382238	     10.56939635	    -14.60042474	      2.55309390
     27.00000000	      4.64000000	      2.32944609	     10.34929710	    -10.46826237	      2.69780172
     28.00000000	      4.65000000	      2.46485772	     10.09528477	     -6.55028645	      2.75004383
     29.00000000	      4.66000000	      2.57265676	      9.84372505	     -3.00950804	      2.75601871
     30.00000000	      4.67000000	      2.63869729	      9.64559742	     -0.04012119	      2.81649798
     31.00000000	      4.68000000	      2.68624490	      9.56035510	      2.17321817	      3.04112700
     32.00000000	      4.69000000	      2.70795909	      9.61249023	      3.50672814	      3.47711926
     33.00000000	      4.70000000	      2.70451115	      9.81234545	      3.89910466	      4.05718432
     34.00000000	      4.71000000	      2.64123321	     10.13658594	      3.41038747	      4.55215574
     35.00000000	      4.72000000	      2.48359126	     10.52852204	      2.14477736	      4.68253706
     36.00000000	      4.73000000	      2.23738277	     10.90240503	      0.29815577	      4.32647459
     37.00000000	      4.74000000	      1.91730871	     11.29723415	     -1.93420456	      3.43142667
     38.00000000	      4.75000000	      1.52020219	     11.62003764	     -4.28610100	      2.10323019
     39.00000000	      4.76000000	      1.03291104	     11.80820790	     -6.57144366	      0.51199634
     40.00000000	      4.77000000	      0.45313841	     11.82326900	     -8.68892119	     -1.08825423
     41.00000000	      4.78000000	     -0.22433299	     11.65438337	    -10.63250872	     -2.41906422
     42.00000000	      4.79000000	     -1.00298821	     11.31727668	    -12.42964086	     -3.26640671
     43.00000000	      4.80000000	     -1.84445340	     10.86459128	    -14.10212055	     -3.49467441
     44.00000000	      4.81000000	     -2.69034385	     10.31179300	    -15.61994336	     -3.30069445
     45.00000000	      4.82000000	     -3.47207207	      9.66248949	    -16.90687161	     -2.82508881
     46.00000000	      4.83000000	     -4.13030242	      8.87048093	    -17.85768099	     -2.27829312
     47.00000000	      4.84000000	     -4.57720363	      7.99293225	    -18.43663324	     -1.81320044
     48.00000000	      4.85000000	     -4.90912821	      6.81754040	    -18.55271352	     -1.42804002
     49.00000000	      4.86000000	     -5.04458458	      5.50846864	    -18.30145244	     -1.16747289
     50.00000000	      4.87000000	     -5.02117425	      4.02915024	    -17.74964289	     -1.02383733
     51.00000000	      4.88000000	     -4.84992667	      2.55685604	    -17.01925346	     -0.93085560
     52.00000000	      4.89000000	     -4.56607445	      1.01048924	    -16.17001442	     -0.87405402
     53.00000000	      4.90000000	     -4.21735316	     -0.48304534	    -15.29768612	     -0.82798653
     54.00000000	      4.91000000	     -3.80653927	     -1.88306865	    -14.45105147	     -0.76429802
     55.00000000	      4.92000000	     -3.39792631	     -3.19121571	    -13.63590863	     -0.68594626
     56.00000000	      4.93000000	     -3.00915045	     -4.40999352	    -12.83587112	     -0.59437687
     57.00000000	      4.94000000	     -2.66278060	     -5.56960682	    -12.03253653	     -0.48112199
     58.00000000	      4.95000000	     -2.34256042	     -6.75554172	    -11.17956924	     -0.37812951
     59.00000000	      4.96000000	     -2.04397634	     -7.87258751	    -10.35294540	     -0.20290265
     60.00000000	      4.97000000	     -1.76070478	     -8.99664458	     -9.54197852	      0.00020460
     61.00000000	      4.98000000	     -1.50809325	    -10.16317130	     -8.76256203	      0.27458024
     62.00000000	      4.99000000	     -1.29401877	    -11.36504666	     -8.01293151	      0.58344790
     63.00000000	      5.00000000	     -1.15745892	    -12.61798231	     -7.30529680	      0.91515929
     64.00000000	      5.01000000	     -1.08825608	    -13.95439392	     -6.58174969	      1.21178374
     65.00000000	      5.02000000	     -1.13947598	    -15.26092341	     -5.90515271	      1.50856576
     66.00000000	      5.03000000	     -1.25104303	    -16.69298479	     -5.17058588	      1.73740596
     67.00000000	      5.04000000	     -1.48519128	    -18.08042671	     -4.45365257	      1.95122126
     68.00000000	      5.05000000	     -1.79882832	    -19.46575614	     -3.73630135	      2.15978669
     69.00000000	      5.06000000	     -2.15491459	    -20.89024752	     -3.02331178	      2.38643094
     70.00000000	      5.07000000	     -2.52997668	    -22.31481762	     -2.32139301	      2.62796040
     71.00000000	      5.08000000	     -2.90880694	    -23.78237015	     -1.62460539	      2.87075003
     72.00000000	      5.09000000	     -3.30964859	    -25.19806811	     -0.97435089	      3.13630941
     73.00000000	      5.10000000	     -3.74992985	    -26.57917959	     -0.38083015	      3.40956226
     74.00000000	      5.11000000	     -4.19194491	    -27.93360168	      0.16624224	      3.69791608
     75.00000000	      5.12000000	     -4.65787123	    -29.21637924	      0.60305388	      4.02141365
     76.00000000	      5.13000000	     -5.09954966	    -30.39487592	      0.92576212	      4.36623980
     77.00000000	      5.14000000	     -5.49905848	    -31.52927775	      1.11002615	      4.74851471
     78.00000000	      5.15000000	     -5.86495531	    -32.56859596	      1.13142104	      5.13243711
     79.00000000	      5.16000000	     -6.17135429	    -33.50398235	      0.99174047	      5.49985348
     80.00000000	      5.17000000	     -6.42661075	    -34.35976544	      0.66700556	      5.83695442
     81.00000000	      5.18000000	     -6.64577681	    -35.11452528	      0.12533322	      6.13810174
     82.00000000	      5.19000000	     -6.82104375	    -35.75010235	     -0.64918995	      6.38390864
     83.00000000	      5.20000000	     -6.92397328	    -36.23976896	     -1.67503173	      6.55274235
     84.00000000	      5.21000000	     -6.93474373	    -36.52087444	     -2.97099871	      6.66019952
     85.00000000	      5.22000000	     -6.81562150	    -36.75402768	     -4.49745866	      6.68177793
     86.00000000	      5.23000000	     -6.57931083	    -36.77114828	     -6.26835988	      6.54316204
     87.00000000	      5.24000000	     -6.28083099	    -36.61678047	     -8.31247794	      6.27301303
     88.00000000	      5.25000000	     -5.85267155	    -36.31279724	    -10.57275009	      5.71648508
     89.00000000	      5.26000000	     -5.34436151	    -35.79211136	    -13.11745698	      4.88287535
     90.00000000	      5.27000000	     -4.68736743	    -35.09215410	    -15.91777243	      3.58840339
     91.00000000	      5.28000000	     -3.87546126	    -34.20948637	    -18.97377106	      1.71794231
     92.00000000	      5.29000000	     -2.91977039	    -33.09247675	    -22.31591594	     -0.77642485
     93.00000000	      5.30000000	     -1.86900504	    -31.69039121	    -25.94589323	     -3.93370231
     94.00000000	      5.31000000	     -0.78832434	    -30.02228910	    -29.77061354	     -7.74887225
     95.00000000	      5.32000000	      0.23226917	    -28.10635740	    -33.69134977	    -12.06980514
     96.00000000	      5.33000000	      1.12546616	    -26.11199416	    -37.52133246	    -16.64606528
     97.00000000	      5.34000000	      1.84214232	    -24.06594475	    -41.16340114	    -20.96664370
     98.00000000	      5.35000000	      2.38191596	    -21.98935564	    -44.58425034	    -24.35296930
     99.00000000	      5.36000000	      2.71076811	    -20.15110287	    -47.67082778	    -26.43086482
    100.00000000	      5.37000000	      2.84997927	    -18.26966172	    -50.53308770	    -26.79852199
    101.00000000	      5.38000000	      2.83318777	    -16.37804348	    -53.09733391	    -25.70958467
    102.00000000	      5.39000000	      2.68709282	    -14.46348539	    -55.32606034	    -23.61355624
    103.00000000	      5.40000000	      2.48501446	    -12.49081929	    -57.19779090	    -21.11265155
    104.00000000	      5.41000000	      2.20556007	    -10.45259181	    -58.71254344	    -18.65713129
    105.00000000	      5.42000000	      1.92972354	     -8.36875303	    -59.89077953	    -16.52347198
    106.00000000	      5.43000000	      1.63849787	     -6.26479994	    -60.73919061	    -14.78688095
    107.00000000	      5.44000000	      1.35431943	     -4.21641894	    -61.24970738	    -13.35110052
    108.00000000	      5.45000000	      1.06888700	     -2.29954183	    -61.42208551	    -12.05831253
    109.00000000	      5.46000000	      0.78010120	     -0.41455056	    -61.27300306	    -10.80159370
    110.00000000	      5.47000000	      0.48919415	      1.25134464	    -60.78416347	     -9.45133501
    111.00000000	      5.48000000	      0.21439669	      2.80001730	    -59.97446590	     -8.00397615
    112.00000000	      5.49000000	     -0.03570169	      4.12925800	    -58.82008259	     -6.46755491
    113.00000000	      5.50000000	     -0.28067399	      5.26138445	    -57.31992702	     -5.01448313
    114.00000000	      5.51000000	     -0.53438770	      6.19346419	    -55.46576208	     -3.79375171
    115.00000000	      5.52000000	     -0.65305414	      7.08690005	    -53.35391749	     -2.79397092
